<svg width="18" height="20" viewBox="0 0 18 20" fill="none" xmlns="http://www.w3.org/2000/svg">
<path d="M8.88889 0C11.2464 0 13.5073 0.903066 15.1743 2.51053C16.8413 4.118 17.7778 6.29819 17.7778 8.5715C17.7778 12.6672 14.9111 16.4373 9.28593 19.8887C9.16722 19.9614 9.0295 20 8.88889 20C8.74827 20 8.61056 19.9614 8.49185 19.8887C2.86667 16.4373 0 12.6672 0 8.5715C0 6.29819 0.936505 4.118 2.6035 2.51053C4.27049 0.903066 6.53141 0 8.88889 0ZM8.88889 5.71433C8.10306 5.71433 7.34942 6.01535 6.79376 6.55117C6.23809 7.087 5.92593 7.81373 5.92593 8.5715C5.92593 9.32926 6.23809 10.056 6.79376 10.5918C7.34942 11.1276 8.10306 11.4287 8.88889 11.4287C9.67472 11.4287 10.4284 11.1276 10.984 10.5918C11.5397 10.056 11.8519 9.32926 11.8519 8.5715C11.8519 7.81373 11.5397 7.087 10.984 6.55117C10.4284 6.01535 9.67472 5.71433 8.88889 5.71433Z" fill="#F5313F"/>
</svg>
