<svg width="17" height="16" viewBox="0 0 17 16" fill="none" xmlns="http://www.w3.org/2000/svg">
<path d="M9.29165 2.05175V0.5H7.70831V2.05175C6.31522 2.22026 5.02058 2.82213 4.02751 3.76293C3.03445 4.70373 2.39914 5.93022 2.22127 7.25H0.583313V8.75H2.22127C2.39888 10.0699 3.0341 11.2965 4.02722 12.2374C5.02033 13.1782 6.31511 13.78 7.70831 13.9482V15.5H9.29165V13.9482C10.6849 13.7801 11.9798 13.1784 12.9729 12.2375C13.966 11.2966 14.6012 10.0699 14.7787 8.75H16.4166V7.25H14.7787C14.6011 5.93013 13.9659 4.70349 12.9727 3.76265C11.9796 2.8218 10.6848 2.22001 9.29165 2.05175ZM8.49998 12.5C5.88036 12.5 3.74998 10.4818 3.74998 8C3.74998 5.51825 5.88036 3.5 8.49998 3.5C11.1196 3.5 13.25 5.51825 13.25 8C13.25 10.4818 11.1196 12.5 8.49998 12.5Z" fill="#F5313F"/>
</svg>
