<svg width="21" height="20" viewBox="0 0 21 20" fill="none" xmlns="http://www.w3.org/2000/svg">
<path d="M10.2273 0C8.20451 0 6.22717 0.58649 4.54531 1.6853C2.86344 2.78412 1.55259 4.3459 0.778509 6.17316C0.00443128 8.00043 -0.198103 10.0111 0.196519 11.9509C0.59114 13.8907 1.56519 15.6725 2.9955 17.0711C4.42581 18.4696 6.24814 19.422 8.23203 19.8078C10.2159 20.1937 12.2723 19.9957 14.1411 19.2388C16.0099 18.4819 17.6071 17.2002 18.7309 15.5557C19.8547 13.9112 20.4545 11.9778 20.4545 10C20.4545 7.34783 19.377 4.8043 17.459 2.92893C15.5411 1.05357 12.9397 0 10.2273 0ZM10.0866 16.1562C9.87805 16.1562 9.67414 16.0958 9.5007 15.9824C9.32725 15.8691 9.19207 15.7081 9.11224 15.5196C9.03242 15.3312 9.01153 15.1239 9.05223 14.9238C9.09292 14.7238 9.19337 14.54 9.34087 14.3958C9.48837 14.2516 9.6763 14.1534 9.88089 14.1136C10.0855 14.0738 10.2975 14.0942 10.4903 14.1722C10.683 14.2503 10.8477 14.3825 10.9636 14.5521C11.0795 14.7217 11.1413 14.921 11.1413 15.125C11.1413 15.3985 11.0302 15.6608 10.8324 15.8542C10.6346 16.0476 10.3664 16.1562 10.0866 16.1562ZM10.9624 11.1187V12.1937C10.961 12.4124 10.8742 12.6222 10.7197 12.7803C10.5652 12.9383 10.3547 13.0326 10.1314 13.0437H10.0611C9.94806 13.0479 9.83531 13.0302 9.72934 12.9915C9.62338 12.9529 9.52629 12.8941 9.44369 12.8185C9.36108 12.743 9.29459 12.6522 9.24806 12.5514C9.20153 12.4506 9.17588 12.3418 9.17259 12.2312V10.5062C9.16205 10.406 9.17244 10.3048 9.20312 10.2086C9.23381 10.1125 9.28415 10.0234 9.3511 9.94687C9.41804 9.8703 9.50019 9.80784 9.59257 9.76325C9.68495 9.71867 9.78562 9.69289 9.88849 9.6875C10.892 9.6125 12.5604 9.25 12.5604 7.65625C12.5604 6.5125 11.6591 5.7375 10.3679 5.7375C9.87842 5.7454 9.39649 5.85674 8.95516 6.06387C8.51383 6.271 8.12354 6.56902 7.81108 6.9375C7.6929 7.06028 7.54005 7.14592 7.37197 7.18353C7.20388 7.22115 7.02815 7.20903 6.86712 7.14873C6.70609 7.08843 6.56704 6.98267 6.46765 6.8449C6.36826 6.70712 6.31302 6.54355 6.30895 6.375C6.31272 6.13938 6.41151 5.91476 6.58381 5.75C7.0585 5.21265 7.64793 4.78362 8.31057 4.49314C8.97321 4.20266 9.69293 4.0578 10.419 4.06875C12.7841 4.06875 14.4332 5.50625 14.4332 7.56875C14.4332 9.475 13.174 10.75 10.9624 11.1187Z" fill="#F5313F"/>
</svg>
