<svg width="16" height="18" viewBox="0 0 16 18" fill="none" xmlns="http://www.w3.org/2000/svg">
<path d="M7.67677 0C9.71277 0 11.6654 0.77992 13.1051 2.16819C14.5447 3.55645 15.3535 5.43935 15.3535 7.40266C15.3535 10.9399 12.8778 14.1958 8.01966 17.1766C7.91714 17.2394 7.79821 17.2727 7.67677 17.2727C7.55533 17.2727 7.43639 17.2394 7.33387 17.1766C2.47576 14.1958 0 10.9399 0 7.40266C0 5.43935 0.8088 3.55645 2.24847 2.16819C3.68815 0.77992 5.64076 0 7.67677 0ZM7.67677 4.9351C6.9981 4.9351 6.34723 5.19508 5.86734 5.65783C5.38744 6.12059 5.11785 6.74822 5.11785 7.40266C5.11785 8.05709 5.38744 8.68472 5.86734 9.14748C6.34723 9.61023 6.9981 9.87021 7.67677 9.87021C8.35544 9.87021 9.00631 9.61023 9.4862 9.14748C9.96609 8.68472 10.2357 8.05709 10.2357 7.40266C10.2357 6.74822 9.96609 6.12059 9.4862 5.65783C9.00631 5.19508 8.35544 4.9351 7.67677 4.9351Z" fill="#F5313F"/>
</svg>
