<svg width="18" height="20" viewBox="0 0 18 20" fill="none" xmlns="http://www.w3.org/2000/svg">
<path d="M7.22333 -0.00106045C5.90947 -0.00470345 4.60795 0.252396 3.39416 0.755344C2.18037 1.25829 1.07845 1.99709 0.152222 2.92894L1.72333 4.50005C3.19222 3.03116 5.14556 2.22116 7.22333 2.22116C9.30111 2.22116 11.2544 3.03116 12.7233 4.50005C14.1922 5.96894 15.0022 7.92227 15.0022 10.0001C15.0022 12.0778 14.1922 14.0312 12.7233 15.5001C11.2544 16.9689 9.30111 17.7789 7.22333 17.7789C5.14556 17.7789 3.19222 16.9689 1.72333 15.5001L0.152222 17.0712C2.04 18.9601 4.55111 20.0012 7.22333 20.0012C9.89556 20.0012 12.4067 18.9601 14.2944 17.0712C16.1833 15.1834 17.2244 12.6723 17.2244 10.0001C17.2244 7.32783 16.1833 4.81672 14.2944 2.92894C13.3682 1.99709 12.2663 1.25829 11.0525 0.755344C9.83872 0.252396 8.53719 -0.00470345 7.22333 -0.00106045Z" fill="#F5313F"/>
</svg>
