<svg width="20" height="20" viewBox="0 0 20 20" fill="none" xmlns="http://www.w3.org/2000/svg">
<path d="M0.0282251 6.92125C0.484689 5.57848 1.23333 4.34388 2.22466 3.29908C2.30674 3.21281 2.41361 3.15174 2.53182 3.12356C2.65004 3.09538 2.7743 3.10135 2.88898 3.14072L5.2541 3.9475C5.42211 4.00459 5.60101 4.02613 5.77853 4.01065C5.95604 3.99517 6.12796 3.94303 6.28246 3.85782C6.43695 3.77261 6.57037 3.65635 6.67354 3.51703C6.77671 3.3777 6.84719 3.21862 6.88012 3.05071L7.33228 0.690379C7.35434 0.575655 7.41137 0.469771 7.49618 0.386105C7.581 0.302439 7.68978 0.244745 7.80878 0.220314C9.25352 -0.0734379 10.7465 -0.0734379 12.1912 0.220314C12.4347 0.270321 12.6225 0.455347 12.6677 0.690379L13.1199 3.05071C13.1523 3.2189 13.2224 3.37833 13.3254 3.51796C13.4285 3.65759 13.5619 3.77409 13.7166 3.85939C13.8713 3.94468 14.0434 3.99674 14.2211 4.01196C14.3989 4.02717 14.5779 4.00518 14.7459 3.9475L17.111 3.14072C17.2257 3.10135 17.35 3.09538 17.4682 3.12356C17.5864 3.15174 17.6933 3.21281 17.7753 3.29908C18.7649 4.34422 19.5144 5.57773 19.97 6.92125C20.0077 7.03227 20.0099 7.15153 19.9764 7.26377C19.943 7.37601 19.8754 7.47614 19.7822 7.55134L17.8658 9.10322C17.7293 9.21322 17.6196 9.35048 17.5444 9.5054C17.4691 9.66031 17.4302 9.82913 17.4302 10C17.4302 10.1709 17.4691 10.3397 17.5444 10.4946C17.6196 10.6495 17.7293 10.7868 17.8658 10.8968L19.7822 12.4487C19.9735 12.6037 20.0466 12.8521 19.97 13.0788C19.5141 14.4214 18.7661 15.656 17.7753 16.701C17.6933 16.7872 17.5864 16.8483 17.4682 16.8765C17.35 16.9046 17.2257 16.8987 17.111 16.8593L14.7459 16.0525C14.5779 15.9954 14.399 15.9739 14.2215 15.9894C14.044 16.0049 13.872 16.057 13.7175 16.1422C13.563 16.2274 13.4296 16.3437 13.3265 16.483C13.2233 16.6223 13.1528 16.7814 13.1199 16.9493L12.6677 19.3096C12.6458 19.4247 12.5885 19.5308 12.5034 19.6146C12.4182 19.6983 12.3089 19.7558 12.1895 19.7797C10.7453 20.0734 9.25294 20.0734 7.80878 19.7797C7.68946 19.7556 7.5803 19.698 7.49516 19.6143C7.41001 19.5306 7.35272 19.4246 7.33054 19.3096L6.88012 16.9493C6.84773 16.7811 6.77759 16.6217 6.67456 16.4821C6.57152 16.3424 6.43805 16.2259 6.28339 16.1406C6.12874 16.0553 5.95658 16.0033 5.77886 15.9881C5.60113 15.9729 5.42208 15.9948 5.2541 16.0525L2.88898 16.8593C2.7743 16.8987 2.65004 16.9046 2.53182 16.8765C2.41361 16.8483 2.30674 16.7872 2.22466 16.701C1.23396 15.656 0.485913 14.4214 0.0299641 13.0788C-0.00767218 12.9678 -0.00990424 12.8485 0.0235532 12.7363C0.0570106 12.624 0.124637 12.5239 0.217783 12.4487L2.13423 10.8968C2.2704 10.7866 2.37984 10.6493 2.45492 10.4944C2.52999 10.3395 2.56889 10.1708 2.56889 10C2.56889 9.82922 2.52999 9.66049 2.45492 9.50559C2.37984 9.3507 2.2704 9.21338 2.13423 9.10322L0.217783 7.55134C0.124637 7.47614 0.0570106 7.37601 0.0235532 7.26377C-0.00990424 7.15153 -0.00767218 7.03227 0.0299641 6.92125H0.0282251ZM6.9549 10C6.9549 10.7737 7.27554 11.5156 7.84628 12.0627C8.41702 12.6098 9.19111 12.9171 9.99826 12.9171C10.8054 12.9171 11.5795 12.6098 12.1502 12.0627C12.721 11.5156 13.0416 10.7737 13.0416 10C13.0416 9.22636 12.721 8.48439 12.1502 7.93733C11.5795 7.39027 10.8054 7.08294 9.99826 7.08294C9.19111 7.08294 8.41702 7.39027 7.84628 7.93733C7.27554 8.48439 6.9549 9.22636 6.9549 10Z" fill="#F5313F"/>
</svg>
